<svg clip-rule="evenodd" fill-rule="evenodd" stroke-linejoin="round" stroke-miterlimit="2" viewBox="0 0 55 55" xmlns="http://www.w3.org/2000/svg"><path d="m27.5 25.73c-1.6-3.1-5.94-8.89-9.98-11.74-3.87-2.73-5.35-2.26-6.31-1.82-1.12.51-1.32 2.23-1.32 3.24s.55 8.3.92 9.51c1.2 4.02 5.45 5.38 9.37 4.94.2-.03.4-.06.61-.08-.2.03-.41.06-.61.08-5.74.85-10.85 2.94-4.15 10.39 7.36 7.62 10.09-1.63 11.49-6.33 1.4 4.69 3.01 13.61 11.35 6.33 6.27-6.33 1.72-9.54-4.02-10.39-.2-.02-.41-.05-.61-.08.21.03.41.05.61.08 3.92.44 8.18-.92 9.37-4.94.36-1.22.92-8.5.92-9.51s-.2-2.73-1.32-3.24c-.97-.44-2.44-.91-6.31 1.82-4.07 2.86-8.41 8.64-10.01 11.74z" fill="#1185fe" fill-rule="nonzero" transform="matrix(1.56116 0 0 1.56116 -15.4553 -15.422)"/></svg>